name Walk5.mot
datacolumns 19
datarows 27
range 1.43000000 1.56000000
endheader

                time	   L_ground_force_vx	   L_ground_force_vy	   L_ground_force_vz	   L_ground_force_px	   L_ground_force_py	   L_ground_force_pz	   R_ground_force_vx	   R_ground_force_vy	   R_ground_force_vz	   R_ground_force_px	   R_ground_force_py	   R_ground_force_pz	   L_ground_torque_x	   L_ground_torque_y	   L_ground_torque_z	   R_ground_torque_x	   R_ground_torque_y	   R_ground_torque_z	
          1.43000000	         -2.23599797	         95.82810640	        -11.18311661	          0.00323540	          0.00000000	          0.00629357	         -0.00000017	          0.00000191	          0.00000003	          0.00000000	          0.00000000	          0.00000000	          0.00000000	          0.14187053	          0.00000000	          0.00000000	         -0.00000001	          0.00000000	
          1.43500000	         -6.45748239	        137.58093837	        -15.70761667	         -0.07140574	          0.00000000	         -0.00870274	         -0.00000022	          0.00000221	          0.00000003	          0.00000000	          0.00000000	          0.00000000	          0.00000000	          0.18607673	          0.00000000	          0.00000000	         -0.00000001	          0.00000000	
          1.44000000	        -12.41706704	        184.51850182	        -20.47567654	         -0.14103307	          0.00000000	         -0.02259569	         -0.00000026	          0.00000239	          0.00000003	          0.00000000	          0.00000000	          0.00000000	          0.00000000	          0.22472168	          0.00000000	          0.00000000	         -0.00000000	          0.00000000	
          1.44500000	        -20.29879621	        234.25691678	        -25.12243737	         -0.20184258	          0.00000000	         -0.03470422	         -0.00000030	          0.00000239	          0.00000003	          0.00000000	          0.00000000	          0.00000000	          0.00000000	          0.25153366	          0.00000000	          0.00000000	          0.00000001	          0.00000000	
          1.45000000	        -30.03890243	        284.32548804	        -29.19640837	         -0.25193206	          0.00000000	         -0.04474427	         -0.00000032	          0.00000209	          0.00000003	          0.00000000	          0.00000000	          0.00000000	          0.00000000	          0.25927859	          0.00000000	          0.00000000	          0.00000003	          0.00000000	
          1.45500000	        -41.20032542	        333.10784135	        -32.22904764	         -0.29092851	          0.00000000	         -0.05272204	         -0.00000032	          0.00000136	          0.00000002	         -0.00000000	          0.00000000	         -0.00000000	          0.00000000	          0.23993606	          0.00000000	          0.00000000	          0.00000005	          0.00000000	
          1.46000000	        -53.04323167	        379.60540790	        -33.83298634	         -0.31947668	          0.00000000	         -0.05882170	         -0.00000027	          0.00000006	          0.00000000	         -0.00000000	          0.00000000	         -0.00000000	          0.00000000	          0.18550610	          0.00000000	          0.00000000	          0.00000008	          0.00000000	
          1.46500000	        -64.71859865	        423.16328409	        -33.77253873	         -0.33882330	          0.00000000	         -0.06332062	         -0.00000017	         -0.00000197	         -0.00000003	         -0.00000000	          0.00000000	         -0.00000000	          0.00000000	          0.09041284	          0.00000000	          0.00000000	          0.00000012	          0.00000000	
          1.47000000	        -75.52797539	        463.40063278	        -32.00433764	         -0.35050091	          0.00000000	         -0.06652614	          0.00000002	         -0.00000491	         -0.00000007	         -0.00000000	          0.00000000	         -0.00000000	          0.00000000	         -0.04538126	          0.00000000	          0.00000000	          0.00000016	          0.00000000	
          1.47500000	        -85.13890375	        500.12506969	        -28.66585380	         -0.35610332	          0.00000000	         -0.06873144	          0.00000031	         -0.00000887	         -0.00000013	         -0.00000000	          0.00000000	         -0.00000000	          0.00000000	         -0.21472070	          0.00000000	          0.00000000	          0.00000021	          0.00000000	
          1.48000000	        -93.56881251	        533.21487038	        -24.04064222	         -0.35714583	          0.00000000	         -0.07019015	          0.00000072	         -0.00001397	         -0.00000020	         -0.00000000	          0.00000000	         -0.00000000	          0.00000000	         -0.40282357	          0.00000000	          0.00000000	          0.00000026	          0.00000000	
          1.48500000	       -100.93019140	        562.55441949	        -18.53012612	         -0.35498950	          0.00000000	         -0.07110679	          0.00000128	         -0.00002018	         -0.00000029	         -0.00000001	          0.00000000	         -0.00000000	          0.00000000	         -0.58861373	          0.00000000	          0.00000000	          0.00000030	          0.00000000	
          1.49000000	       -107.19333718	        588.12143451	        -12.58252765	         -0.35079557	          0.00000000	         -0.07164024	          0.00000198	         -0.00002739	         -0.00000039	         -0.00000001	          0.00000000	         -0.00000001	          0.00000000	         -0.74985861	          0.00000000	          0.00000000	          0.00000034	          0.00000000	
          1.49500000	       -112.18774459	        610.12884498	         -6.57447214	         -0.34550176	          0.00000000	         -0.07191327	          0.00000284	         -0.00003525	         -0.00000051	         -0.00000001	          0.00000000	         -0.00000001	          0.00000000	         -0.87092704	          0.00000000	          0.00000000	          0.00000035	          0.00000000	
          1.50000000	       -115.77807590	        629.05275124	         -0.75133086	         -0.33982119	          0.00000000	         -0.07201954	          0.00000383	         -0.00004316	         -0.00000062	         -0.00000001	          0.00000000	         -0.00000001	          0.00000000	         -0.94667483	          0.00000000	          0.00000000	          0.00000032	          0.00000000	
          1.50500000	       -117.96833486	        645.49403524	          4.75460188	         -0.33425868	          0.00000000	         -0.07202938	          0.00000490	         -0.00005017	         -0.00000072	         -0.00000001	          0.00000000	         -0.00000001	          0.00000000	         -0.98050782	          0.00000000	          0.00000000	          0.00000024	          0.00000000	
          1.51000000	       -118.85342960	        660.02738255	          9.88057691	         -0.32914024	          0.00000000	         -0.07199483	          0.00000596	         -0.00005492	         -0.00000079	         -0.00000001	          0.00000000	         -0.00000001	          0.00000000	         -0.97957718	          0.00000000	          0.00000000	          0.00000008	          0.00000000	
          1.51500000	       -118.54839962	        673.13684038	         14.58405758	         -0.32464980	          0.00000000	         -0.07195153	          0.00000688	         -0.00005555	         -0.00000079	         -0.00000001	          0.00000000	         -0.00000001	          0.00000000	         -0.95030061	          0.00000000	          0.00000000	         -0.00000017	          0.00000000	
          1.52000000	       -117.18041786	        685.19365879	         18.80840130	         -0.32086469	          0.00000000	         -0.07191879	          0.00000746	         -0.00004967	         -0.00000071	         -0.00000000	          0.00000000	         -0.00000000	          0.00000000	         -0.89652722	          0.00000000	          0.00000000	         -0.00000054	          0.00000000	
          1.52500000	       -114.89872914	        696.44683391	         22.48682575	         -0.31778393	          0.00000000	         -0.07190290	          0.00000746	         -0.00003439	         -0.00000049	          0.00000000	          0.00000000	          0.00000000	          0.00000000	         -0.82072112	          0.00000000	          0.00000000	         -0.00000106	          0.00000000	
          1.53000000	       -111.86008457	        707.02492878	         25.57550789	         -0.31535144	          0.00000000	         -0.07190332	          0.00000652	         -0.00000632	         -0.00000008	          0.00000001	          0.00000000	          0.00000001	          0.00000000	         -0.72625491	          0.00000000	          0.00000000	         -0.00000174	          0.00000000	
          1.53500000	       -108.20553932	        716.94744820	         28.08091083	         -0.31347853	          0.00000000	         -0.07191782	          0.00000427	          0.00003824	          0.00000056	          0.00000003	          0.00000000	          0.00000002	          0.00000000	         -0.61822797	          0.00000000	          0.00000000	         -0.00000257	          0.00000000	
          1.54000000	       -104.05256681	        726.14323087	         30.06355237	         -0.31206130	          0.00000000	         -0.07194506	          0.00000023	          0.00010300	          0.00000149	          0.00000005	          0.00000000	          0.00000004	          0.00000000	         -0.50272857	          0.00000000	          0.00000000	         -0.00000356	          0.00000000	
          1.54500000	        -99.50149071	        734.47481238	         31.62519201	         -0.31099183	          0.00000000	         -0.07198651	         -0.00000611	          0.00019129	          0.00000275	          0.00000008	          0.00000000	          0.00000005	          0.00000000	         -0.38602700	          0.00000000	          0.00000000	         -0.00000467	          0.00000000	
          1.55000000	        -94.64503116	        741.76638485	         32.88910640	         -0.31016677	          0.00000000	         -0.07204563	         -0.00001523	          0.00030538	          0.00000439	          0.00000011	          0.00000000	          0.00000007	          0.00000000	         -0.27358453	          0.00000000	          0.00000000	         -0.00000581	          0.00000000	
          1.55500000	        -89.57399008	        747.82185731	         33.98128349	         -0.30949251	          0.00000000	         -0.07212753	         -0.00002758	          0.00044562	          0.00000640	          0.00000014	          0.00000000	          0.00000010	          0.00000000	         -0.16999964	          0.00000000	          0.00000000	         -0.00000688	          0.00000000	
          1.56000000	        -84.37836073	        752.43834587	         35.01261978	         -0.30888840	          0.00000000	         -0.07223654	         -0.00004343	          0.00060935	          0.00000874	          0.00000018	          0.00000000	          0.00000012	          0.00000000	         -0.07912635	          0.00000000	          0.00000000	         -0.00000770	          0.00000000	
